<?xml version="1.0" encoding="UTF-8"?>
<svg xmlns="http://www.w3.org/2000/svg" id="Layer_1" data-name="Layer 1" viewBox="0 0 24 24">
  <path d="m21,22.5v1.5h-3v-1.5c0-1.379-1.121-2.5-2.5-2.5h-7c-1.378,0-2.5,1.121-2.5,2.5v1.5h-3v-1.5c0-3.032,2.467-5.5,5.5-5.5h7c3.032,0,5.5,2.468,5.5,5.5ZM12,7.016c1.651,0,2.996,1.342,3,2.992,0,.35-.073.68-.185.992h2.185c1,0,.999-.648,1-.984v-.016c-.009-3.301-2.697-5.984-6-5.984s-5.992,2.684-6,5.984v.016c.005,1.789.801,3.392,2.051,4.49-.021-.167-.051-.332-.051-.505,0-1.129.472-2.145,1.225-2.872-.141-.347-.224-.723-.225-1.12.004-1.65,1.349-2.992,3-2.992Zm-5.128-2.988c1.529-1.433,3.531-2.141,5.63-2.011,3.924.254,6.999,3.669,6.999,7.774,0,1.77-1.439,3.209-3.209,3.209h-2.406c-.244-.829-1.002-1.439-1.91-1.439-1.105,0-2,.895-2,2s.895,2,2,2c.538,0,1.025-.215,1.384-.561h2.932c2.872,0,5.209-2.337,5.209-5.209C21.5,4.634,17.604.342,12.63.021c-2.664-.173-5.191.732-7.126,2.548-1.787,1.675-2.861,3.996-2.99,6.432h2.003c.123-1.903.948-3.654,2.355-4.973Z"/>
</svg>
